HIERARCHY
ROOT Hips
{
	OFFSET 0.000000 0.000000 0.000000
	CHANNELS 6 Xposition Yposition Zposition Xrotation Yrotation Zrotation
	JOINT Spine
	{
		OFFSET 0.000000 0.986310 -0.016150
		CHANNELS 3 Xrotation Yrotation Zrotation
		JOINT Spine1
		{
			OFFSET -0.000000 1.150695 -0.018842
			CHANNELS 3 Xrotation Yrotation Zrotation
			JOINT Spine2
			{
				OFFSET 0.000000 1.315081 -0.021534
				CHANNELS 3 Xrotation Yrotation Zrotation
				JOINT Neck
				{
					OFFSET -0.000000 1.479465 -0.024225
					CHANNELS 3 Xrotation Yrotation Zrotation
					JOINT Head
					{
						OFFSET 0.000000 1.037368 0.160286
						CHANNELS 3 Xrotation Yrotation Zrotation
						End Site
						{
							OFFSET 0.000000 2.051621 0.000000
						}
					}
				}
				JOINT LeftShoulder
				{
					OFFSET 0.561780 1.266813 -0.027281
					CHANNELS 3 Xrotation Yrotation Zrotation
					JOINT LeftArm
					{
						OFFSET 1.117481 -0.429783 -0.006111
						CHANNELS 3 Xrotation Yrotation Zrotation
						JOINT LeftForeArm
						{
							OFFSET 1.859138 -1.977188 0.171808
							CHANNELS 3 Xrotation Yrotation Zrotation
							JOINT LeftHand
							{
								OFFSET 1.431012 -1.475394 1.718321
								CHANNELS 3 Xrotation Yrotation Zrotation
								JOINT LeftHandThumb1
								{
									OFFSET -0.121929 -0.123251 0.393069
									CHANNELS 3 Xrotation Yrotation Zrotation
									JOINT LeftHandThumb2
									{
										OFFSET -0.097543 -0.098602 0.314456
										CHANNELS 3 Xrotation Yrotation Zrotation
										JOINT LeftHandThumb3
										{
											OFFSET -0.120019 -0.140000 0.294176
											CHANNELS 3 Xrotation Yrotation Zrotation
											End Site
											{
												OFFSET -0.106341 -0.127206 0.253733
											}
										}
									}
								}
								JOINT LeftHandIndex1
								{
									OFFSET 0.211737 -0.431800 0.899969
									CHANNELS 3 Xrotation Yrotation Zrotation
									JOINT LeftHandIndex2
									{
										OFFSET 0.065152 -0.172362 0.259049
										CHANNELS 3 Xrotation Yrotation Zrotation
										JOINT LeftHandIndex3
										{
											OFFSET -0.003030 -0.196403 0.228173
											CHANNELS 3 Xrotation Yrotation Zrotation
											End Site
											{
												OFFSET 0.021780 -0.159725 0.206156
											}
										}
									}
								}
								JOINT LeftHandMiddle1
								{
									OFFSET 0.357300 -0.583922 0.760501
									CHANNELS 3 Xrotation Yrotation Zrotation
									JOINT LeftHandMiddle2
									{
										OFFSET 0.109606 -0.225692 0.224713
										CHANNELS 3 Xrotation Yrotation Zrotation
										JOINT LeftHandMiddle3
										{
											OFFSET 0.046638 -0.245408 0.199491
											CHANNELS 3 Xrotation Yrotation Zrotation
											End Site
											{
												OFFSET 0.085110 -0.197404 0.190088
											}
										}
									}
								}
								JOINT LeftHandRing1
								{
									OFFSET 0.451267 -0.672547 0.593177
									CHANNELS 3 Xrotation Yrotation Zrotation
									JOINT LeftHandRing2
									{
										OFFSET 0.132076 -0.239178 0.169451
										CHANNELS 3 Xrotation Yrotation Zrotation
										JOINT LeftHandRing3
										{
											OFFSET 0.070188 -0.249962 0.144053
											CHANNELS 3 Xrotation Yrotation Zrotation
											End Site
											{
												OFFSET 0.067464 -0.216392 0.128450
											}
										}
									}
								}
								JOINT LeftHandPinky1
								{
									OFFSET 0.478657 -0.709149 0.394794
									CHANNELS 3 Xrotation Yrotation Zrotation
									JOINT LeftHandPinky2
									{
										OFFSET 0.094391 -0.196290 0.087879
										CHANNELS 3 Xrotation Yrotation Zrotation
										JOINT LeftHandPinky3
										{
											OFFSET 0.040896 -0.203274 0.069002
											CHANNELS 3 Xrotation Yrotation Zrotation
											End Site
											{
												OFFSET 0.070882 -0.166176 0.070410
											}
										}
									}
								}
							}
						}
					}
				}
				JOINT RightShoulder
				{
					OFFSET -0.561780 1.266813 -0.021170
					CHANNELS 3 Xrotation Yrotation Zrotation
					JOINT RightArm
					{
						OFFSET -1.117470 -0.429797 0.007038
						CHANNELS 3 Xrotation Yrotation Zrotation
						JOINT RightForeArm
						{
							OFFSET -1.859002 -1.977210 0.138561
							CHANNELS 3 Xrotation Yrotation Zrotation
							JOINT RightHand
							{
								OFFSET -1.429594 -1.475366 1.709922
								CHANNELS 3 Xrotation Yrotation Zrotation
								JOINT RightHandThumb1
								{
									OFFSET 0.098710 -0.123752 0.408432
									CHANNELS 3 Xrotation Yrotation Zrotation
									JOINT RightHandThumb2
									{
										OFFSET 0.078969 -0.099002 0.326746
										CHANNELS 3 Xrotation Yrotation Zrotation
										JOINT RightHandThumb3
										{
											OFFSET 0.124796 -0.141629 0.294294
											CHANNELS 3 Xrotation Yrotation Zrotation
											End Site
											{
												OFFSET 0.066439 -0.103891 0.260804
											}
										}
									}
								}
								JOINT RightHandIndex1
								{
									OFFSET -0.241938 -0.449457 0.965313
									CHANNELS 3 Xrotation Yrotation Zrotation
									JOINT RightHandIndex2
									{
										OFFSET -0.070231 -0.166617 0.244189
										CHANNELS 3 Xrotation Yrotation Zrotation
										JOINT RightHandIndex3
										{
											OFFSET -0.000734 -0.193940 0.215897
											CHANNELS 3 Xrotation Yrotation Zrotation
											End Site
											{
												OFFSET -0.026265 -0.152434 0.190983
											}
										}
									}
								}
								JOINT RightHandMiddle1
								{
									OFFSET -0.368522 -0.600552 0.768637
									CHANNELS 3 Xrotation Yrotation Zrotation
									JOINT RightHandMiddle2
									{
										OFFSET -0.132454 -0.189576 0.219769
										CHANNELS 3 Xrotation Yrotation Zrotation
										JOINT RightHandMiddle3
										{
											OFFSET -0.051524 -0.257631 0.217275
											CHANNELS 3 Xrotation Yrotation Zrotation
											End Site
											{
												OFFSET -0.070792 -0.212112 0.196414
											}
										}
									}
								}
								JOINT RightHandRing1
								{
									OFFSET -0.497965 -0.676556 0.621356
									CHANNELS 3 Xrotation Yrotation Zrotation
									JOINT RightHandRing2
									{
										OFFSET -0.125901 -0.228612 0.167391
										CHANNELS 3 Xrotation Yrotation Zrotation
										JOINT RightHandRing3
										{
											OFFSET -0.063348 -0.252055 0.147087
											CHANNELS 3 Xrotation Yrotation Zrotation
											End Site
											{
												OFFSET -0.087749 -0.196266 0.133529
											}
										}
									}
								}
								JOINT RightHandPinky1
								{
									OFFSET -0.514521 -0.723849 0.434918
									CHANNELS 3 Xrotation Yrotation Zrotation
									JOINT RightHandPinky2
									{
										OFFSET -0.100691 -0.192082 0.078412
										CHANNELS 3 Xrotation Yrotation Zrotation
										JOINT RightHandPinky3
										{
											OFFSET -0.042624 -0.198540 0.059026
											CHANNELS 3 Xrotation Yrotation Zrotation
											End Site
											{
												OFFSET -0.063073 -0.163159 0.058483
											}
										}
									}
								}
							}
						}
					}
				}
			}
		}
	}
	JOINT LeftUpLeg
	{
		OFFSET 1.041451 -0.547760 0.049994
		CHANNELS 3 Xrotation Yrotation Zrotation
		JOINT LeftLeg
		{
			OFFSET 0.490304 -4.757185 -0.035210
			CHANNELS 3 Xrotation Yrotation Zrotation
			JOINT LeftFoot
			{
				OFFSET 0.465834 -4.389879 -0.096499
				CHANNELS 3 Xrotation Yrotation Zrotation
				JOINT LeftToeBase
				{
					OFFSET -0.192848 -0.784764 1.329755
					CHANNELS 3 Xrotation Yrotation Zrotation
					End Site
					{
						OFFSET -0.069065 -0.017159 0.628242
					}
				}
			}
		}
	}
	JOINT RightUpLeg
	{
		OFFSET -1.041451 -0.547760 0.051603
		CHANNELS 3 Xrotation Yrotation Zrotation
		JOINT RightLeg
		{
			OFFSET -0.490304 -4.757185 -0.023390
			CHANNELS 3 Xrotation Yrotation Zrotation
			JOINT RightFoot
			{
				OFFSET -0.465834 -4.389880 -0.086918
				CHANNELS 3 Xrotation Yrotation Zrotation
				JOINT RightToeBase
				{
					OFFSET 0.192848 -0.784764 1.307838
					CHANNELS 3 Xrotation Yrotation Zrotation
					End Site
					{
						OFFSET 0.069065 -0.017160 0.627341
					}
				}
			}
		}
	}
}
MOTION
Frames: 5
Frame Time: 0.041667
-1.018705 0.636116 7.005110 3.447795 -34.844507 1.565293 2.435171 -0.607463 -2.288809 1.328695 -0.357020 -1.054983 0.312587 -0.141784 -0.207550 14.514830 7.166163 -15.056968 -0.000001 0.000001 -0.000000 5.765324 2.451151 -0.892519 -19.955089 19.359116 -20.086060 -29.683807 -21.398143 -16.508752 -25.559025 28.281997 -34.067215 0.000033 0.000007 0.000007 0.000007 -0.000006 -0.000008 0.000001 0.000002 -0.000001 -0.000012 -0.000006 -0.000007 0.000017 -0.000016 -0.000021 -0.000012 0.000004 0.000001 0.000004 0.000001 0.000003 0.000009 -0.000012 -0.000017 -0.000003 0.000009 0.000010 0.000015 0.000014 -0.000001 0.000007 -0.000005 -0.000017 -0.000005 0.000001 -0.000003 0.000010 0.000002 0.000003 0.000005 -0.000008 -0.000022 -0.000004 0.000006 0.000015 2.850412 -4.706127 -6.843659 141.549482 136.361175 199.630474 -5.513863 12.187138 7.678721 6.572230 -4.365610 16.321804 0.000029 0.000004 -0.000006 0.000018 0.000016 -0.000003 -0.000005 -0.000006 0.000003 -0.000020 0.000010 0.000005 0.000009 0.000011 0.000010 -0.000010 -0.000004 -0.000009 -0.000006 0.000000 0.000002 -0.000007 0.000003 0.000003 0.000001 -0.000015 -0.000002 0.000011 -0.000009 -0.000003 0.000003 0.000009 0.000019 -0.000000 -0.000006 -0.000011 -0.000015 0.000005 0.000013 0.000008 0.000003 0.000014 -0.000011 -0.000002 -0.000007 -9.655327 -14.521684 0.973525 -0.231487 -0.138366 -0.320572 -5.249020 -4.531190 -4.905452 0.123874 0.006628 0.007587 -7.531536 -62.570297 -6.668477 7.845694 -0.534982 0.214512 -22.481498 -5.203851 3.794235 -0.020334 0.003429 -0.015244 
-1.026572 0.618869 7.032179 3.961882 -34.539908 1.755423 2.276847 -0.689238 -2.307298 1.088429 -0.430851 -1.056975 0.268406 -0.138146 -0.212921 14.105276 7.554074 -14.191317 -0.000000 -0.000004 0.000000 5.658340 2.522145 -0.748724 -20.051178 19.112782 -20.024648 -29.716521 -21.397164 -16.472958 -25.396718 28.530569 -33.725391 0.000029 0.000002 0.000003 0.000001 -0.000008 -0.000009 -0.000007 0.000009 0.000002 -0.000006 -0.000008 -0.000013 0.000017 -0.000016 -0.000018 -0.000008 0.000010 0.000001 0.000003 0.000002 -0.000000 0.000001 -0.000012 -0.000018 0.000000 0.000009 0.000010 0.000022 0.000012 -0.000001 0.000008 -0.000001 -0.000018 -0.000000 -0.000009 -0.000001 0.000006 0.000002 -0.000002 -0.000001 -0.000010 -0.000022 -0.000001 0.000003 0.000023 2.840260 -4.805296 -7.061483 140.691365 136.952874 200.605593 -4.786112 11.286564 7.773045 5.908633 -4.556317 17.371534 0.000026 0.000007 -0.000006 0.000017 0.000015 -0.000006 -0.000007 -0.000009 -0.000003 -0.000019 0.000015 -0.000000 0.000007 0.000014 0.000011 -0.000003 -0.000005 -0.000008 -0.000006 -0.000002 0.000002 -0.000001 0.000002 0.000010 -0.000002 -0.000015 -0.000000 0.000009 -0.000009 -0.000002 0.000009 0.000008 0.000015 0.000002 -0.000003 -0.000009 -0.000013 0.000015 0.000009 0.000005 0.000003 0.000015 -0.000011 -0.000002 -0.000007 -9.720709 -14.858028 0.784237 -0.238242 -0.130528 -0.307443 -5.225348 -4.562635 -4.895138 0.098211 0.000492 -0.014807 -7.445516 -62.654780 -6.623596 7.623275 -0.467880 0.182637 -22.388269 -5.173581 3.837865 -0.033337 -0.001955 -0.008064 
-1.029355 0.613663 7.038498 4.065118 -34.510924 1.775085 2.356090 -0.726747 -2.345501 0.984724 -0.455691 -1.040789 0.240748 -0.140084 -0.210013 14.021049 7.679634 -13.995474 0.000000 0.000000 -0.000001 5.632778 2.533757 -0.707707 -20.187942 19.022101 -19.910765 -29.603143 -21.297565 -16.391645 -25.463309 28.640206 -33.534460 0.000032 0.000007 0.000002 0.000009 -0.000003 -0.000007 -0.000006 0.000007 0.000003 -0.000009 -0.000004 -0.000009 0.000017 -0.000009 -0.000015 -0.000013 0.000004 0.000004 0.000005 0.000001 0.000002 0.000005 -0.000013 -0.000021 -0.000003 0.000012 0.000010 0.000017 0.000022 0.000003 0.000007 -0.000008 -0.000014 -0.000000 0.000000 -0.000000 0.000008 0.000004 0.000003 0.000003 -0.000012 -0.000022 -0.000008 0.000002 0.000018 2.852899 -4.852161 -7.145568 140.580429 137.112236 200.808627 -4.681548 11.147043 7.772513 5.639387 -4.496395 17.670060 0.000031 0.000006 -0.000004 0.000013 0.000013 -0.000009 -0.000005 -0.000003 0.000003 -0.000022 0.000015 0.000003 0.000001 0.000010 0.000005 -0.000006 -0.000007 -0.000004 -0.000007 0.000002 0.000009 -0.000008 0.000001 0.000004 0.000001 -0.000009 -0.000002 0.000012 -0.000007 0.000003 0.000002 0.000008 0.000010 -0.000000 -0.000002 -0.000010 -0.000012 0.000013 0.000016 0.000004 0.000004 0.000019 -0.000012 -0.000000 -0.000005 -9.699759 -14.909290 0.780421 -0.223431 -0.088753 -0.343226 -5.178685 -4.612679 -4.868327 -0.032948 -0.001541 -0.006896 -7.317355 -62.679642 -6.495505 7.531656 -0.401510 0.121797 -22.330583 -5.242611 3.863866 -0.026282 -0.000496 -0.002237 
-1.031868 0.628397 6.986202 4.329675 -34.873109 1.571260 2.440536 -1.168090 -2.325786 0.820481 -0.725724 -0.948748 0.238365 -0.161146 -0.290306 13.858242 8.298912 -13.596303 -0.000001 0.000001 0.000001 5.504186 2.557801 -0.445296 -21.195043 18.892964 -18.674453 -28.380855 -20.310102 -15.750362 -26.202552 29.617466 -32.585309 0.000034 0.000003 -0.000000 0.000006 -0.000005 -0.000010 -0.000007 0.000015 -0.000006 -0.000011 -0.000005 -0.000012 0.000017 -0.000017 -0.000021 -0.000004 0.000006 0.000003 0.000002 0.000004 -0.000004 0.000001 -0.000015 -0.000020 -0.000003 0.000010 0.000011 0.000018 0.000018 -0.000005 0.000009 -0.000010 -0.000016 0.000001 -0.000003 -0.000005 0.000006 0.000007 -0.000010 -0.000002 -0.000009 -0.000018 -0.000008 0.000004 0.000015 3.071625 -5.331562 -7.901106 141.360641 137.514931 200.859895 -5.986043 12.457264 8.102958 4.285736 -3.423439 19.903390 0.000035 0.000001 -0.000004 0.000018 0.000017 0.000004 -0.000005 -0.000015 0.000000 -0.000018 0.000011 0.000008 0.000004 0.000008 0.000014 -0.000003 0.000002 -0.000007 -0.000004 0.000000 0.000006 0.000000 0.000000 0.000006 0.000005 -0.000007 0.000001 0.000016 -0.000010 0.000007 0.000006 0.000009 0.000016 -0.000000 -0.000010 -0.000011 -0.000007 0.000011 0.000015 0.000005 0.000004 0.000017 -0.000015 -0.000003 -0.000003 -9.907271 -14.882390 1.766567 -0.199103 0.003273 -0.500800 -5.257606 -4.559913 -4.844179 -0.157434 -0.008740 0.010587 -6.110033 -63.229069 -4.470179 7.068307 -0.329775 -0.068753 -22.183747 -5.389137 3.861784 0.057627 0.011201 0.022639 
-1.032351 0.649868 6.921062 4.341372 -35.667203 1.182084 2.468644 -1.774940 -2.211298 0.865794 -1.106481 -0.983480 0.288659 -0.210365 -0.401900 13.733150 9.150122 -13.396036 -0.000002 -0.000000 -0.000000 5.328840 2.503404 -0.079092 -23.034248 18.490900 -16.702026 -26.188605 -18.412453 -14.716770 -27.316071 30.893485 -31.198969 0.000034 0.000002 0.000005 0.000004 -0.000001 -0.000009 -0.000005 0.000004 -0.000000 -0.000008 -0.000003 -0.000011 0.000014 -0.000017 -0.000015 -0.000006 0.000001 -0.000003 0.000004 -0.000004 0.000003 0.000007 -0.000019 -0.000010 -0.000003 0.000008 0.000008 0.000010 0.000014 0.000001 0.000009 -0.000003 -0.000021 -0.000002 -0.000003 -0.000003 0.000007 0.000004 -0.000003 -0.000000 -0.000008 -0.000017 -0.000002 0.000013 0.000018 3.405709 -6.133056 -8.893902 143.960280 137.696108 199.418192 -9.475571 16.091231 8.979710 3.985753 -0.872631 24.270476 0.000028 -0.000001 -0.000002 0.000013 0.000009 0.000003 -0.000003 -0.000009 -0.000004 -0.000016 0.000008 0.000013 0.000007 0.000016 0.000014 -0.000003 -0.000001 -0.000003 0.000003 -0.000004 0.000013 -0.000003 0.000006 0.000005 0.000005 -0.000009 -0.000000 0.000011 -0.000009 0.000009 0.000002 0.000007 0.000014 -0.000003 -0.000004 -0.000012 -0.000004 0.000012 0.000014 -0.000002 0.000005 0.000019 -0.000009 -0.000001 -0.000007 -9.710905 -14.707576 2.637886 0.040826 -0.046246 -0.482447 -5.411249 -4.314663 -4.908792 -0.029435 -0.004277 0.004380 -4.625403 -63.656762 -2.087254 6.774252 -0.267831 -0.145917 -22.117361 -5.516302 3.896576 0.090835 0.004192 0.024589 
